<?xml version="1.0" encoding="utf-8"?>
<!-- Generator: Adobe Illustrator 19.1.0, SVG Export Plug-In . SVG Version: 6.00 Build 0)  -->
<svg version="1.1" id="Layer_1" xmlns="http://www.w3.org/2000/svg" xmlns:xlink="http://www.w3.org/1999/xlink" x="0px" y="0px"
	 viewBox="25.2 82 301.1 316" style="enable-background:new 25.2 82 301.1 316;" xml:space="preserve">
<style type="text/css">
	
		.Graphic_x0020_Style{fill:none;stroke:#21667C;stroke-width:0.75;stroke-linecap:round;stroke-linejoin:round;stroke-miterlimit:10;}
	.st0{fill:none;stroke:#21667C;stroke-linecap:round;stroke-linejoin:round;stroke-miterlimit:10;}
	.st1{fill:#21667C;}
	.st2{fill:#C2C4B7;}
	.st3{fill:#F3F5F6;}
	.st4{fill:#111011;}
	.st5{fill:#B44945;}
</style>
<polygon class="Graphic_x0020_Style" points="242.5,374 173.8,397.2 150.5,374 "/>
<polygon class="Graphic_x0020_Style" points="173.8,397.2 92.8,374 150.5,374 "/>
<polygon class="Graphic_x0020_Style" points="92.8,374 32.8,309.5 66.8,322.2 "/>
<polygon class="Graphic_x0020_Style" points="150.5,374 92.8,374 66.8,322.2 "/>
<polygon class="Graphic_x0020_Style" points="150.5,374 66.8,322.2 133,309 "/>
<polygon class="Graphic_x0020_Style" points="216.5,322.2 150.5,374 133,309 "/>
<polygon class="Graphic_x0020_Style" points="242.5,374 150.5,374 216.5,322.2 "/>
<polygon class="Graphic_x0020_Style" points="290.5,309.5 242.5,374 216.5,322.2 "/>
<polygon class="Graphic_x0020_Style" points="308,322.2 242.5,374 290.5,309.5 "/>
<polygon class="Graphic_x0020_Style" points="325.5,240 308,322.2 290.5,309.5 "/>
<polygon class="Graphic_x0020_Style" points="325.5,240 290.5,309.5 267.5,240.2 "/>
<polygon class="Graphic_x0020_Style" points="290.5,309.5 216.5,322.2 267.5,240.2 "/>
<polygon class="Graphic_x0020_Style" points="267.5,240.2 216.5,322.2 176.5,240 "/>
<polygon class="Graphic_x0020_Style" points="216.5,322.2 133,309 176.5,240 "/>
<polygon class="Graphic_x0020_Style" points="176.5,240 133,309 84.5,239.5 "/>
<polygon class="Graphic_x0020_Style" points="133,309 66.8,322.2 84.5,239.5 "/>
<polygon class="Graphic_x0020_Style" points="84.5,239.5 66.8,322.2 26,240 "/>
<polygon class="Graphic_x0020_Style" points="66.8,322.2 32.8,309.5 26,240 "/>
<polygon class="Graphic_x0020_Style" points="61.5,170.2 26,240 43,157.5 "/>
<polygon class="Graphic_x0020_Style" points="84.5,239.5 26,240 61.5,170.2 "/>
<polygon class="Graphic_x0020_Style" points="134.5,157.5 84.5,239.5 61.5,170.2 "/>
<polygon class="Graphic_x0020_Style" points="176.5,240 84.5,239.5 134.5,157.5 "/>
<polygon class="Graphic_x0020_Style" points="219,170.8 176.5,240 134.5,157.5 "/>
<polygon class="st0" points="267.5,240.2 176.5,240 219,170.8 "/>
<polygon class="Graphic_x0020_Style" points="284.8,157.5 267.5,240.2 219,170.8 "/>
<polygon class="Graphic_x0020_Style" points="325.5,240 267.5,240.2 284.8,157.5 "/>
<polygon class="Graphic_x0020_Style" points="325.5,240 284.8,157.5 318.2,170.2 "/>
<polygon class="Graphic_x0020_Style" points="318.2,170.2 284.8,157.5 258.8,106 "/>
<polygon class="Graphic_x0020_Style" points="219,170.8 134.5,157.5 201.5,106 "/>
<polygon class="Graphic_x0020_Style" points="284.8,157.5 219,170.8 201.5,106 "/>
<polygon class="Graphic_x0020_Style" points="284.8,157.5 201.5,106 258.8,106 "/>
<polygon class="Graphic_x0020_Style" points="258.8,106 201.5,106 178.2,82.8 "/>
<polygon class="Graphic_x0020_Style" points="201.5,106 109.5,106 178.2,82.8 "/>
<polygon class="Graphic_x0020_Style" points="201.5,106 134.5,157.5 109.5,106 "/>
<polygon class="Graphic_x0020_Style" points="134.5,157.5 61.5,170.2 109.5,106 "/>
<polygon class="Graphic_x0020_Style" points="109.5,106 61.5,170.2 43,157.5 "/>
<circle class="st1" cx="134.5" cy="157.5" r="1.4"/>
<circle class="st1" cx="109.5" cy="106" r="1.4"/>
<circle class="st1" cx="61.5" cy="170.2" r="1.4"/>
<circle class="st1" cx="43" cy="157.5" r="1.4"/>
<circle class="st1" cx="26" cy="240" r="1.4"/>
<circle class="st1" cx="84.5" cy="239.5" r="1.4"/>
<circle class="st1" cx="176.5" cy="240" r="1.4"/>
<circle class="st1" cx="219" cy="170.8" r="1.4"/>
<circle class="st1" cx="178.2" cy="82.8" r="1.4"/>
<circle class="st1" cx="258.8" cy="106" r="1.4"/>
<circle class="st1" cx="201.5" cy="106" r="1.4"/>
<circle class="st1" cx="284.8" cy="157.5" r="1.4"/>
<circle class="st1" cx="318.2" cy="170.2" r="1.4"/>
<circle class="st1" cx="325.5" cy="240" r="1.4"/>
<circle class="st1" cx="267.5" cy="240.2" r="1.4"/>
<circle class="st1" cx="32.8" cy="309.5" r="1.4"/>
<circle class="st1" cx="66.8" cy="322.2" r="1.4"/>
<circle class="st1" cx="133" cy="309" r="1.4"/>
<circle class="st1" cx="216.5" cy="322.2" r="1.4"/>
<circle class="st1" cx="290.5" cy="309.5" r="1.4"/>
<circle class="st1" cx="308" cy="322.2" r="1.4"/>
<circle class="st1" cx="242.5" cy="374" r="1.4"/>
<circle class="st1" cx="173.8" cy="397.2" r="1.4"/>
<circle class="st1" cx="150.5" cy="374" r="1.4"/>
<circle class="st1" cx="92.8" cy="374" r="1.4"/>
<rect x="247.4" y="-79" class="st2" width="74.2" height="96"/>
<rect x="-86.2" y="-79" class="st3" width="74.2" height="96.4"/>
<rect x="25.2" y="-79" class="st1" width="73.9" height="96"/>
<rect x="136.3" y="-79" class="st4" width="74.2" height="96"/>
<rect x="358.8" y="-79" class="st5" width="74.2" height="96"/>
</svg>
