<?xml version="1.0" encoding="utf-8"?>
<!-- Generator: Adobe Illustrator 19.1.0, SVG Export Plug-In . SVG Version: 6.00 Build 0)  -->
<svg version="1.1" id="Layer_1" xmlns="http://www.w3.org/2000/svg" xmlns:xlink="http://www.w3.org/1999/xlink" x="0px" y="0px"
	 viewBox="-9.8 -446.1 68.3 68.3" style="enable-background:new -9.8 -446.1 68.3 68.3;" xml:space="preserve">
<style type="text/css">
	.st0{fill:none;stroke:#21657C;stroke-width:3;stroke-miterlimit:10;}
	.st1{fill:none;stroke:#21657C;stroke-width:2.7737;stroke-miterlimit:10;}
	.st2{fill:#21657C;}
</style>
<g>
	<circle class="st0" cx="24.4" cy="-412" r="32.7"/>
	<g>
		<path class="st2" d="M26.8-418.4c3.7-2.2,5.6,0.9,3.7,4.4c-1.9,3.5-3.6,5.8-4.5,5.8c-0.9,0-1.6-2.3-2.6-6.4
			c-1.1-4.2-1.1-11.8-5.4-11c-4.1,0.8-9.6,7.3-9.6,7.3l1.3,1.7c0,0,2.7-2.1,3.6-1.1s4.3,13.8,5.4,16.2c1,2.1,3.7,4.8,6.7,2.8
			c3-1.9,13-10.5,14.8-20.6C42-429.3,28.2-427.2,26.8-418.4z"/>
	</g>
</g>
</svg>
