<?xml version="1.0" encoding="utf-8"?>
<!-- Generator: Adobe Illustrator 19.1.0, SVG Export Plug-In . SVG Version: 6.00 Build 0)  -->
<svg version="1.1" id="Layer_1" xmlns="http://www.w3.org/2000/svg" xmlns:xlink="http://www.w3.org/1999/xlink" x="0px" y="0px"
	 viewBox="139.7 -446.1 68.3 68.3" style="enable-background:new 139.7 -446.1 68.3 68.3;" xml:space="preserve">
<style type="text/css">
	.st0{fill:none;stroke:#21657C;stroke-width:3;stroke-miterlimit:10;}
	.st1{fill:none;stroke:#21657C;stroke-width:2.7737;stroke-miterlimit:10;}
	.st2{fill:#21657C;}
</style>
<g>
	<circle class="st0" cx="173.9" cy="-412" r="32.7"/>
	<g>
		<path class="st1" d="M193.2-412c0,0.7,0,1.4-0.1,2.1c-0.7,6.4-4.6,11.9-10,14.8c-2.7,1.5-5.8,2.3-9.1,2.3c-5.1,0-9.6-2-13.1-5.1
			c-3.8-3.5-6.2-8.6-6.2-14.1c0-1.2,0.1-2.4,0.3-3.6c1.3-7.1,6.5-12.8,13.3-14.8c1.8-0.5,3.6-0.8,5.6-0.8c5,0,9.6,1.9,13,5
			C190.7-422.7,193.2-417.6,193.2-412z"/>
		<path class="st1" d="M186.9-426.2c-2.6,4.1-6.3,7.4-10.7,9.6c-3.5,1.8-7.6,2.7-11.8,2.7c-3.3,0-6.5-0.6-9.4-1.7
			c1.3-7.1,6.5-12.8,13.3-14.8c1.8-0.5,3.6-0.8,5.6-0.8C178.9-431.2,183.5-429.3,186.9-426.2z"/>
		<path class="st1" d="M193-409.8c-0.7,6.4-4.6,11.9-10,14.8c-2.7,1.5-5.8,2.3-9.1,2.3c-5.1,0-9.6-2-13.1-5.1
			c3.7-6.6,10.1-11.4,17.8-13c1.8-0.4,3.6-0.6,5.5-0.6C187.2-411.4,190.2-410.8,193-409.8z"/>
		<path class="st1" d="M183.1-395c-2.7,1.5-5.8,2.3-9.1,2.3c-5.1,0-9.6-2-13.1-5.1c-3.8-3.5-6.2-8.6-6.2-14.1c0-1.2,0.1-2.4,0.3-3.6
			c1.3-7.1,6.5-12.8,13.3-14.8c3,4.3,5.6,9,7.8,13.8c0.9,1.9,1.7,3.8,2.4,5.8C180.5-405.8,182-400.5,183.1-395z"/>
	</g>
</g>
</svg>
