<?xml version="1.0" encoding="utf-8"?>
<!-- Generator: Adobe Illustrator 19.1.0, SVG Export Plug-In . SVG Version: 6.00 Build 0)  -->
<svg version="1.1" id="Layer_1" xmlns="http://www.w3.org/2000/svg" xmlns:xlink="http://www.w3.org/1999/xlink" x="0px" y="0px"
	 viewBox="-84.5 -446.1 68.3 68.3" style="enable-background:new -84.5 -446.1 68.3 68.3;" xml:space="preserve">
<style type="text/css">
	.st0{fill:none;stroke:#21657C;stroke-width:3;stroke-miterlimit:10;}
	.st1{fill:none;stroke:#21657C;stroke-width:2.7737;stroke-miterlimit:10;}
	.st2{fill:#21657C;}
</style>
<g>
	<circle class="st0" cx="-50.3" cy="-412" r="32.7"/>
	<g>
		<path class="st2" d="M-37-424.5c-8.3-0.6-18.2-0.7-26.7,0c-2.6,0.3-4.4,3.5-4.6,5.9c-0.4,5.1-0.4,8,0,13.1c0.2,2.4,2,5.7,4.6,6
			c8.6,0.6,18.4,0.6,26.7,0c2.6-0.5,4.4-3.6,4.6-6c0.4-5.1,0.4-8.3,0-13.5C-32.6-421.3-34-424.4-37-424.5z M-54.9-405.5v-13.1
			l11.4,6.6L-54.9-405.5z"/>
	</g>
</g>
</svg>
