<?xml version="1.0" encoding="utf-8"?>
<!-- Generator: Adobe Illustrator 19.1.0, SVG Export Plug-In . SVG Version: 6.00 Build 0)  -->
<svg version="1.1" id="Layer_1" xmlns="http://www.w3.org/2000/svg" xmlns:xlink="http://www.w3.org/1999/xlink" x="0px" y="0px"
	 viewBox="-159.3 -446.1 68.3 68.3" style="enable-background:new -159.3 -446.1 68.3 68.3;" xml:space="preserve">
<style type="text/css">
	.st0{fill:none;stroke:#21657C;stroke-width:3;stroke-miterlimit:10;}
	.st1{fill:none;stroke:#21657C;stroke-width:2.7737;stroke-miterlimit:10;}
	.st2{fill:#21657C;}
</style>
<g>
	<circle class="st0" cx="-125.1" cy="-412" r="32.7"/>
	<g>
		<g>
			<path class="st2" d="M-129-413.3c0,0,3.9-0.3,3.9-4.8c0-4.6-3.2-6.8-7.2-6.8h-7.4h-0.2h-5.6v25.5h5.6h0.2h7.4
				c0,0,8.1,0.3,8.1-7.5C-124.3-407-123.9-413.3-129-413.3z M-139.8-420.4h6.5h1c0,0,1.8,0,1.8,2.6c0,2.6-1.1,3-2.3,3h-6.9V-420.4z
				 M-132.7-404h-7.1v-6.8h7.4c0,0,2.7,0,2.7,3.5C-129.7-404.4-131.6-404.1-132.7-404z"/>
			<g>
				<path class="st2" d="M-113.5-418.5c-9.8,0-9.8,9.8-9.8,9.8s-0.7,9.7,9.8,9.7c0,0,8.7,0.5,8.7-6.8h-4.5c0,0,0.1,2.7-4.1,2.7
					c0,0-4.5,0.3-4.5-4.4h13.2C-104.6-407.4-103.2-418.5-113.5-418.5z M-109.5-410.8h-8.4c0,0,0.5-3.9,4.5-3.9
					C-109.5-414.8-109.5-410.8-109.5-410.8z"/>
				<rect x="-119" y="-423.5" class="st2" width="10.5" height="3.1"/>
			</g>
		</g>
	</g>
</g>
</svg>
