<?xml version="1.0" encoding="utf-8"?>
<!-- Generator: Adobe Illustrator 19.1.0, SVG Export Plug-In . SVG Version: 6.00 Build 0)  -->
<svg version="1.1" id="Layer_1" xmlns="http://www.w3.org/2000/svg" xmlns:xlink="http://www.w3.org/1999/xlink" x="0px" y="0px"
	 viewBox="214.5 -446.1 68.3 68.3" style="enable-background:new 214.5 -446.1 68.3 68.3;" xml:space="preserve">
<style type="text/css">
	.st0{fill:none;stroke:#21657C;stroke-width:3;stroke-miterlimit:10;}
	.st1{fill:none;stroke:#21657C;stroke-width:2.7737;stroke-miterlimit:10;}
	.st2{fill:#21657C;}
</style>
<g>
	<circle class="st0" cx="248.7" cy="-412" r="32.7"/>
	<g>
		<path class="st2" d="M263.8-424.5c-1.3,0.8-2.7,1.3-4.2,1.6c-1.2-1.3-2.9-2.1-4.8-2.1c-3.6,0-6.6,2.9-6.6,6.6c0,0.5,0.1,1,0.2,1.5
			c-5.5-0.3-10.3-2.9-13.5-6.9c-0.6,1-0.9,2.1-0.9,3.3c0,2.3,1.2,4.3,2.9,5.5c-1.1,0-2.1-0.3-3-0.8c0,0,0,0.1,0,0.1
			c0,3.2,2.3,5.8,5.3,6.4c-0.5,0.1-1.1,0.2-1.7,0.2c-0.4,0-0.8,0-1.2-0.1c0.8,2.6,3.3,4.5,6.1,4.6c-2.2,1.8-5.1,2.8-8.2,2.8
			c-0.5,0-1.1,0-1.6-0.1c2.9,1.9,6.4,2.9,10.1,2.9c12.1,0,18.7-10,18.7-18.7c0-0.3,0-0.6,0-0.9c1.3-0.9,2.4-2.1,3.3-3.4
			c-1.2,0.5-2.4,0.9-3.8,1C262.3-421.7,263.3-423,263.8-424.5z"/>
	</g>
</g>
</svg>
